<?xml version="1.0" encoding="iso-8859-1"?>
<!-- Generator: Adobe Illustrator 19.0.0, SVG Export Plug-In . SVG Version: 6.00 Build 0)  -->
<svg version="1.1" id="Capa_1" xmlns="http://www.w3.org/2000/svg" xmlns:xlink="http://www.w3.org/1999/xlink" x="0px" y="0px"
	 viewBox="0 0 436.907 436.907" style="enable-background:new 0 0 436.907 436.907;" xml:space="preserve">
<circle style="fill:#EFC84A;" cx="218.453" cy="218.453" r="218.453"/>
<path style="opacity:0.1;enable-background:new    ;" d="M435.736,241.129l-89.29-89.27L217.08,109.841L90.446,151.859v5.052
	l56.252,56.218v4.983c0,3.311,1.331,6.281,3.55,8.431l16.623,16.623l-36.045-4.574c-7.987-1.024-15.053,5.223-15.053,13.244v28.535
	c0,3.413,1.365,6.485,3.448,8.841h-0.068l1.092,1.092c0.034,0.034,0.068,0.068,0.068,0.068l142.107,142.107
	C354.773,413.608,425.903,336.461,435.736,241.129z"/>
<g>
	<path style="fill:#D15241;" d="M198.991,282.713c0,0,13.714,37.029,22.857,44.343l7.314-12.439h17.371
		c0,0-24.695-24.003-29.033-36.41L198.991,282.713z"/>
	<path style="fill:#D15241;" d="M200.934,282.713c0,0-13.714,37.029-22.857,44.343l-7.314-12.439h-17.371
		c0,0,24.695-24.003,29.033-36.41L200.934,282.713z"/>
</g>
<path style="fill:#D5D6DB;" d="M279.278,294.331l-77.095-9.79l-71.368,9.063c-7.977,1.013-15.032-5.203-15.032-13.244v-28.521
	c0-8.041,7.056-14.257,15.032-13.244l71.368,9.063l77.095-9.79c4.938-0.627,9.305,3.221,9.305,8.198v40.067
	C288.583,291.11,284.216,294.958,279.278,294.331z"/>
<polygon style="fill:#E56353;" points="181.634,245.048 202.183,247.657 218.176,245.627 218.176,286.572 202.183,284.541 
	181.634,287.151 "/>
<polygon style="fill:#64798A;" points="321.006,265.087 297.844,265.087 302.11,222.363 316.739,222.363 "/>
<path style="fill:#2F4859;" d="M278.404,229.929L218.909,240.9l-60.406-10.971c-6.529,0-11.821-5.292-11.821-11.821v-43.847h143.543
	v43.847C290.225,224.636,284.932,229.929,278.404,229.929z"/>
<polygon style="fill:#64798A;" points="90.453,151.859 217.082,109.851 346.453,151.859 212.968,196.458 "/>
<polygon style="fill:#3A556A;" points="90.453,151.859 212.968,196.687 346.453,151.859 346.453,157.373 212.968,202.173 
	90.453,156.916 "/>
<ellipse style="fill:#2F4859;" cx="212.514" cy="152.392" rx="10.38" ry="7.059"/>
<path style="fill:#DC8744;" d="M207.996,146.001l89.857,29.829c8.104,2.75,13.55,10.346,13.55,18.904v29.379h-7.314v-29.379
	c0-5.421-3.45-10.236-8.586-11.975l-93.32-30.899C202.183,151.859,202.453,147.544,207.996,146.001z"/>
<circle style="fill:#E56353;" cx="309.419" cy="222.379" r="9.144"/>
<g>
</g>
<g>
</g>
<g>
</g>
<g>
</g>
<g>
</g>
<g>
</g>
<g>
</g>
<g>
</g>
<g>
</g>
<g>
</g>
<g>
</g>
<g>
</g>
<g>
</g>
<g>
</g>
<g>
</g>
</svg>
